# xmcd
#
# Track frame offsets: 
#        150
#        23825
#        40845
#        61546
#        79787
#        95130
#        111331
#        131868
#        151355
#        170612
#        187270
#
# Disc length: 2743 seconds
#
# Revision: 0
# Processed by: cddbd v1.5.1PL0 Copyright (c) Steve Scherf et al.
# Submitted via: ExactAudioCopy v0.95a4
#
DISCID=940ab50b
DTITLE=Joe Cocker  - Heart and Soul
DYEAR=2004
DGENRE=pop rock
TTITLE0=What's Goin' On
TTITLE1=Chain Of Fools
TTITLE2=One
TTITLE3=Maybe I'm Amazed
TTITLE4=I Who Have Nothing
TTITLE5=Keep Forgettin'
TTITLE6=I Put A Spell On You
TTITLE7=Every Kind Of People
TTITLE8=Love Don't Live Here
TTITLE9=Don't Let Me Be Lonely
TTITLE10=Jealous Guy
EXTD=
EXTT0=
EXTT1=
EXTT2=
EXTT3=
EXTT4=
EXTT5=
EXTT6=
EXTT7=
EXTT8=
EXTT9=
EXTT10=
PLAYORDER=
